<svg xmlns="http://www.w3.org/2000/svg" width="4949" height="2002" viewBox="0 0 4949 2002" role="img" aria-label="Integrum Systems">
<defs>
  <clipPath id="c1"><rect x="0.0" y="196.0" width="100000.0" height="700.0"/></clipPath>
  <clipPath id="c2"><rect x="0.0" y="1106.0" width="100000.0" height="700.0"/></clipPath>
</defs>
    <g clip-path="url(#c1)" fill="none" stroke="#0B1220" stroke-width="84.0" stroke-linecap="butt" stroke-linejoin="miter" stroke-miterlimit="12">
      <polyline points="238.0,196.0 238.0,896.0"/>
      <polyline points="441.0,196.0 441.0,896.0"/>
      <polyline points="896.0,196.0 896.0,896.0"/>
      <polyline points="441.0,196.0 896.0,896.0"/>
      <polyline points="1041.6,238.0 1542.1,238.0"/>
      <polyline points="1291.8,196.0 1291.8,896.0"/>
      <polyline points="2081.1,238.0 1829.1,238.0 1682.1,385.0 1682.1,707.0 1829.1,854.0 2081.1,854.0"/>
      <polyline points="1682.1,546.0 2001.7,546.0"/>
      <polyline points="2732.1,238.0 2389.1,238.0 2242.1,385.0 2242.1,707.0 2389.1,854.0 2571.1,854.0 2718.1,721.7 2718.1,692.3 2600.9,560.0 2457.7,560.0"/>
      <polyline points="2911.3,196.0 2911.3,896.0"/>
      <polyline points="2911.3,238.0 3159.8,238.0 3306.8,356.1 3306.8,382.4 3159.8,500.5 2911.3,500.5"/>
      <polyline points="2911.3,500.5 3306.8,896.0"/>
      <polyline points="3501.4,196.0 3501.4,707.0 3648.4,854.0 3791.9,854.0 3938.9,707.0 3938.9,196.0"/>
      <polyline points="4133.5,896.0 4133.5,343.0 4211.4,320.7 4344.3,533.3 4500.2,533.3 4633.1,320.7 4711.0,343.0 4711.0,896.0"/>
    </g>
    <g clip-path="url(#c2)" fill="none" stroke="#0B1220" stroke-width="84.0" stroke-linecap="butt" stroke-linejoin="miter" stroke-miterlimit="12">
      <polyline points="658.0,1148.0 385.0,1148.0 238.0,1286.6 238.0,1317.4 385.0,1456.0 469.0,1456.0 616.0,1594.6 616.0,1625.4 469.0,1764.0 196.0,1764.0"/>
      <polyline points="871.1,1106.0 1002.0,1317.1 1156.8,1317.1 1287.7,1106.0"/>
      <polyline points="1079.4,1442.0 1079.4,1806.0"/>
      <polyline points="1955.8,1148.0 1682.8,1148.0 1535.8,1286.6 1535.8,1317.4 1682.8,1456.0 1766.8,1456.0 1913.8,1594.6 1913.8,1625.4 1766.8,1764.0 1493.8,1764.0"/>
      <polyline points="2146.6,1148.0 2647.1,1148.0"/>
      <polyline points="2396.8,1106.0 2396.8,1806.0"/>
      <polyline points="3257.8,1148.0 3005.8,1148.0 2858.8,1295.0 2858.8,1617.0 3005.8,1764.0 3257.8,1764.0"/>
      <polyline points="2858.8,1456.0 3178.4,1456.0"/>
      <polyline points="3480.8,1806.0 3480.8,1253.0 3558.7,1230.7 3691.6,1443.3 3847.4,1443.3 3980.3,1230.7 4058.2,1253.0 4058.2,1806.0"/>
      <polyline points="4753.0,1148.0 4480.0,1148.0 4333.0,1286.6 4333.0,1317.4 4480.0,1456.0 4564.0,1456.0 4711.0,1594.6 4711.0,1625.4 4564.0,1764.0 4291.0,1764.0"/>
    </g>
</svg>
